<?xml version="1.0" standalone="no"?>
<!DOCTYPE svg PUBLIC "-//W3C//DTD SVG 20010904//EN"
 "http://www.w3.org/TR/2001/REC-SVG-20010904/DTD/svg10.dtd">
<svg version="1.0" xmlns="http://www.w3.org/2000/svg"
 width="300.000000pt" height="300.000000pt" viewBox="0 0 300.000000 300.000000"
 preserveAspectRatio="xMidYMid meet">
<metadata>
Created by potrace 1.11, written by Peter Selinger 2001-2013
</metadata>
<g transform="translate(0.000000,300.000000) scale(0.100000,-0.100000)"
fill="#000000" stroke="none">
<path d="M1369 2996 c-2 -2 -29 -7 -59 -10 -196 -23 -391 -88 -565 -189 -402
-233 -677 -650 -732 -1112 -14 -110 -5 -407 12 -434 2 -4 6 -22 9 -41 10 -64
15 -80 46 -170 57 -168 143 -327 249 -460 100 -126 273 -274 416 -357 139 -80
316 -147 445 -169 14 -3 48 -8 75 -13 77 -14 110 -15 245 -14 148 1 188 5 325
38 373 88 691 313 904 639 121 186 194 387 228 630 10 68 10 287 0 356 -34
241 -116 463 -238 642 -21 32 -39 61 -39 66 0 4 15 23 33 40 l34 33 50 -78
c27 -43 57 -90 66 -104 12 -20 23 -26 49 -25 l33 1 0 355 0 355 -354 0 -354 0
-2 -33 c-1 -30 4 -36 69 -77 39 -24 85 -55 103 -68 l32 -23 -36 -38 c-20 -21
-39 -34 -42 -29 -10 13 -110 77 -191 120 -81 44 -244 108 -316 123 -24 6 -65
14 -90 20 -25 5 -62 12 -82 15 -42 7 -318 15 -323 11z m316 -450 c131 -26 186
-45 298 -104 236 -124 415 -333 508 -594 24 -69 25 -78 11 -82 -10 -2 -471 -4
-1025 -4 l-1009 1 7 36 c10 51 58 165 105 246 162 276 451 469 765 511 28 3
51 7 53 9 8 7 227 -7 287 -19z m825 -1301 c0 -42 -77 -220 -134 -310 -163
-254 -443 -431 -748 -472 -63 -8 -236 -8 -293 1 -385 61 -708 327 -841 696
-13 36 -24 72 -24 81 0 15 91 16 1020 16 784 0 1020 -2 1020 -12z"/>
</g>
</svg>
